<svg width="140" height="23" viewBox="0 0 140 23" fill="none" xmlns="http://www.w3.org/2000/svg">
<path d="M7.866 17.345C8.70933 17.345 9.52583 17.2377 10.3155 17.023C11.1128 16.8083 11.8258 16.4863 12.4545 16.057C13.0832 15.62 13.5815 15.0718 13.9495 14.4125C14.3252 13.7455 14.513 12.9673 14.513 12.078C14.513 11.2423 14.3558 10.5523 14.0415 10.008C13.7348 9.46367 13.34 9.02667 12.857 8.697C12.3817 8.35967 11.8833 8.099 11.362 7.915C10.8407 7.72333 10.3653 7.57 9.936 7.455L7.061 6.673C6.70833 6.581 6.36333 6.466 6.026 6.328C5.68867 6.19 5.40883 6.00983 5.1865 5.7875C4.96417 5.5575 4.853 5.26233 4.853 4.902C4.853 4.511 4.98717 4.17367 5.2555 3.89C5.5315 3.60633 5.88417 3.39167 6.3135 3.246C6.7505 3.09267 7.21433 3.02367 7.705 3.039C8.45633 3.062 9.14633 3.28433 9.775 3.706C10.4037 4.12767 10.81 4.741 10.994 5.546L14.375 4.971C13.9763 3.41467 13.202 2.2225 12.052 1.3945C10.902 0.566499 9.46833 0.141 7.751 0.117999C6.61633 0.110332 5.58133 0.286666 4.646 0.646999C3.71067 1.00733 2.96317 1.5555 2.4035 2.2915C1.84383 3.0275 1.564 3.95133 1.564 5.063C1.564 5.85267 1.69433 6.50817 1.955 7.0295C2.22333 7.54317 2.55683 7.95717 2.9555 8.2715C3.35417 8.58583 3.76433 8.82733 4.186 8.996C4.61533 9.16467 4.991 9.295 5.313 9.387L9.614 10.652C10.258 10.8437 10.6873 11.0852 10.902 11.3765C11.1167 11.6602 11.224 11.9707 11.224 12.308C11.224 12.768 11.0668 13.1552 10.7525 13.4695C10.4458 13.7838 10.051 14.0215 9.568 14.1825C9.085 14.3435 8.58667 14.424 8.073 14.424C7.153 14.424 6.33267 14.1672 5.612 13.6535C4.89133 13.1398 4.416 12.4077 4.186 11.457L0.92 11.94C1.08867 13.0593 1.48733 14.0253 2.116 14.838C2.75233 15.643 3.56117 16.264 4.5425 16.701C5.5315 17.1303 6.63933 17.345 7.866 17.345ZM17.0177 17H20.1687V9.479C20.1687 8.766 20.3642 8.18717 20.7552 7.7425C21.1538 7.29017 21.679 7.064 22.3307 7.064C23.013 7.064 23.5458 7.294 23.9292 7.754C24.3202 8.20633 24.5157 8.84267 24.5157 9.663V17H27.6437V9.479C27.6437 8.766 27.8392 8.18717 28.2302 7.7425C28.6288 7.29017 29.154 7.064 29.8057 7.064C30.488 7.064 31.0208 7.294 31.4042 7.754C31.7952 8.20633 31.9907 8.84267 31.9907 9.663V17H35.1187V8.835C35.1187 7.478 34.7545 6.38167 34.0262 5.546C33.3055 4.70267 32.236 4.281 30.8177 4.281C30.0203 4.281 29.2882 4.4535 28.6212 4.7985C27.9542 5.1435 27.4213 5.615 27.0227 6.213C26.7007 5.63033 26.2407 5.16267 25.6427 4.81C25.0447 4.45733 24.301 4.281 23.4117 4.281C22.6603 4.281 21.9703 4.4305 21.3417 4.7295C20.713 5.02083 20.1917 5.42333 19.7777 5.937V4.58H17.0177V17ZM41.559 17.345C42.5174 17.345 43.3224 17.1993 43.974 16.908C44.6334 16.609 45.239 16.1337 45.791 15.482V17H48.528V9.41C48.528 8.84267 48.505 8.329 48.459 7.869C48.413 7.409 48.2674 6.949 48.022 6.489C47.585 5.661 46.941 5.07833 46.09 4.741C45.239 4.40367 44.2654 4.235 43.169 4.235C41.674 4.235 40.4934 4.557 39.627 5.201C38.7607 5.845 38.1704 6.68067 37.856 7.708L40.685 8.605C40.8844 8.03767 41.2332 7.64283 41.7315 7.4205C42.2299 7.19817 42.709 7.087 43.169 7.087C43.905 7.087 44.4532 7.225 44.8135 7.501C45.1739 7.76933 45.3847 8.19483 45.446 8.7775C44.2807 8.94617 43.2534 9.111 42.364 9.272C41.4747 9.42533 40.731 9.60933 40.133 9.824C39.1364 10.192 38.4349 10.6942 38.0285 11.3305C37.6222 11.9592 37.419 12.7067 37.419 13.573C37.419 14.263 37.5762 14.8955 37.8905 15.4705C38.2125 16.0378 38.6802 16.494 39.2935 16.839C39.9145 17.1763 40.6697 17.345 41.559 17.345ZM42.226 14.884C41.6894 14.884 41.2639 14.7652 40.9495 14.5275C40.6352 14.2822 40.478 13.9487 40.478 13.527C40.478 13.2127 40.5777 12.9443 40.777 12.722C40.9764 12.492 41.306 12.285 41.766 12.101C42.1187 11.9707 42.5519 11.8518 43.0655 11.7445C43.5869 11.6295 44.3727 11.4838 45.423 11.3075C45.4154 11.6065 45.3924 11.9362 45.354 12.2965C45.3157 12.6492 45.2314 12.9597 45.101 13.228C45.0167 13.4043 44.8557 13.6228 44.618 13.8835C44.388 14.1442 44.0737 14.378 43.675 14.585C43.284 14.7843 42.801 14.884 42.226 14.884ZM51.5182 17H54.6692V10.652C54.6692 9.21067 55.2365 8.22933 56.3712 7.708C56.7392 7.53167 57.1494 7.42817 57.6017 7.3975C58.0617 7.35917 58.4642 7.39367 58.8092 7.501V4.58C58.2495 4.511 57.6899 4.52633 57.1302 4.626C56.5705 4.718 56.0645 4.902 55.6122 5.178C55.3209 5.34667 55.064 5.54983 54.8417 5.7875C54.627 6.02517 54.4392 6.28967 54.2782 6.581V4.58H51.5182V17ZM68.4487 17V14.401C67.7127 14.5007 67.0419 14.5313 66.4362 14.493C65.8306 14.4547 65.3897 14.217 65.1137 13.78C64.9681 13.55 64.8876 13.2433 64.8722 12.86C64.8646 12.469 64.8607 12.032 64.8607 11.549V6.995H68.4487V4.58H64.8607V1.13H61.7327V4.58H59.6167V6.995H61.7327V11.733C61.7327 12.4767 61.7404 13.1437 61.7557 13.734C61.7711 14.3167 61.9321 14.8917 62.2387 15.459C62.5761 16.0647 63.0667 16.5055 63.7107 16.7815C64.3624 17.0498 65.0984 17.1917 65.9187 17.207C66.7467 17.23 67.5901 17.161 68.4487 17ZM77.4724 17.345C78.3158 17.345 79.1323 17.2377 79.9219 17.023C80.7193 16.8083 81.4323 16.4863 82.0609 16.057C82.6896 15.62 83.1879 15.0718 83.5559 14.4125C83.9316 13.7455 84.1194 12.9673 84.1194 12.078C84.1194 11.2423 83.9623 10.5523 83.6479 10.008C83.3413 9.46367 82.9464 9.02667 82.4634 8.697C81.9881 8.35967 81.4898 8.099 80.9684 7.915C80.4471 7.72333 79.9718 7.57 79.5424 7.455L76.6674 6.673C76.3148 6.581 75.9698 6.466 75.6324 6.328C75.2951 6.19 75.0153 6.00983 74.7929 5.7875C74.5706 5.5575 74.4594 5.26233 74.4594 4.902C74.4594 4.511 74.5936 4.17367 74.8619 3.89C75.1379 3.60633 75.4906 3.39167 75.9199 3.246C76.3569 3.09267 76.8208 3.02367 77.3114 3.039C78.0628 3.062 78.7528 3.28433 79.3814 3.706C80.0101 4.12767 80.4164 4.741 80.6004 5.546L83.9814 4.971C83.5828 3.41467 82.8084 2.2225 81.6584 1.3945C80.5084 0.566499 79.0748 0.141 77.3574 0.117999C76.2228 0.110332 75.1878 0.286666 74.2524 0.646999C73.3171 1.00733 72.5696 1.5555 72.0099 2.2915C71.4503 3.0275 71.1704 3.95133 71.1704 5.063C71.1704 5.85267 71.3008 6.50817 71.5614 7.0295C71.8298 7.54317 72.1633 7.95717 72.5619 8.2715C72.9606 8.58583 73.3708 8.82733 73.7924 8.996C74.2218 9.16467 74.5974 9.295 74.9194 9.387L79.2204 10.652C79.8644 10.8437 80.2938 11.0852 80.5084 11.3765C80.7231 11.6602 80.8304 11.9707 80.8304 12.308C80.8304 12.768 80.6733 13.1552 80.3589 13.4695C80.0523 13.7838 79.6574 14.0215 79.1744 14.1825C78.6914 14.3435 78.1931 14.424 77.6794 14.424C76.7594 14.424 75.9391 14.1672 75.2184 13.6535C74.4978 13.1398 74.0224 12.4077 73.7924 11.457L70.5264 11.94C70.6951 13.0593 71.0938 14.0253 71.7224 14.838C72.3588 15.643 73.1676 16.264 74.1489 16.701C75.1379 17.1303 76.2458 17.345 77.4724 17.345ZM86.6241 22.52H89.7751V16.5515C90.1814 16.8045 90.6299 17 91.1206 17.138C91.6189 17.276 92.1594 17.345 92.7421 17.345C93.8844 17.345 94.8849 17.0575 95.7436 16.4825C96.6023 15.9075 97.2693 15.1255 97.7446 14.1365C98.2276 13.1475 98.4691 12.032 98.4691 10.79C98.4691 9.525 98.2238 8.40183 97.7331 7.4205C97.2501 6.4315 96.5678 5.65333 95.6861 5.086C94.8044 4.51867 93.7694 4.235 92.5811 4.235C91.9371 4.235 91.3468 4.327 90.8101 4.511C90.2811 4.68733 89.8058 4.94033 89.3841 5.27V4.58H86.6241V22.52ZM92.2361 14.562C91.1934 14.562 90.4574 14.217 90.0281 13.527C89.5988 12.8293 89.3841 11.917 89.3841 10.79C89.3841 9.663 89.5949 8.7545 90.0166 8.0645C90.4459 7.36683 91.1474 7.018 92.1211 7.018C92.8188 7.018 93.3899 7.1905 93.8346 7.5355C94.2869 7.87283 94.6204 8.329 94.8351 8.904C95.0498 9.47133 95.1571 10.1 95.1571 10.79C95.1571 11.4877 95.0536 12.124 94.8466 12.699C94.6396 13.2663 94.3214 13.7187 93.8921 14.056C93.4628 14.3933 92.9108 14.562 92.2361 14.562ZM104.45 17.345C105.408 17.345 106.213 17.1993 106.865 16.908C107.524 16.609 108.13 16.1337 108.682 15.482V17H111.419V9.41C111.419 8.84267 111.396 8.329 111.35 7.869C111.304 7.409 111.158 6.949 110.913 6.489C110.476 5.661 109.832 5.07833 108.981 4.741C108.13 4.40367 107.156 4.235 106.06 4.235C104.565 4.235 103.384 4.557 102.518 5.201C101.651 5.845 101.061 6.68067 100.747 7.708L103.576 8.605C103.775 8.03767 104.124 7.64283 104.622 7.4205C105.12 7.19817 105.6 7.087 106.06 7.087C106.796 7.087 107.344 7.225 107.704 7.501C108.064 7.76933 108.275 8.19483 108.337 8.7775C107.171 8.94617 106.144 9.111 105.255 9.272C104.365 9.42533 103.622 9.60933 103.024 9.824C102.027 10.192 101.325 10.6942 100.919 11.3305C100.513 11.9592 100.31 12.7067 100.31 13.573C100.31 14.263 100.467 14.8955 100.781 15.4705C101.103 16.0378 101.571 16.494 102.184 16.839C102.805 17.1763 103.56 17.345 104.45 17.345ZM105.117 14.884C104.58 14.884 104.154 14.7652 103.84 14.5275C103.526 14.2822 103.369 13.9487 103.369 13.527C103.369 13.2127 103.468 12.9443 103.668 12.722C103.867 12.492 104.197 12.285 104.657 12.101C105.009 11.9707 105.442 11.8518 105.956 11.7445C106.477 11.6295 107.263 11.4838 108.314 11.3075C108.306 11.6065 108.283 11.9362 108.245 12.2965C108.206 12.6492 108.122 12.9597 107.992 13.228C107.907 13.4043 107.746 13.6228 107.509 13.8835C107.279 14.1442 106.964 14.378 106.566 14.585C106.175 14.7843 105.692 14.884 105.117 14.884ZM119.883 17.345C121.324 17.345 122.535 16.9885 123.517 16.2755C124.498 15.5625 125.165 14.5467 125.518 13.228L122.321 12.561C122.137 13.159 121.861 13.619 121.493 13.941C121.125 14.263 120.588 14.424 119.883 14.424C118.94 14.424 118.227 14.0905 117.744 13.4235C117.268 12.7488 117.031 11.871 117.031 10.79C117.031 9.755 117.257 8.8925 117.709 8.2025C118.169 7.50483 118.894 7.156 119.883 7.156C120.458 7.156 120.971 7.33617 121.424 7.6965C121.884 8.05683 122.206 8.559 122.39 9.203L125.518 8.375C125.242 7.09467 124.605 6.0865 123.609 5.3505C122.62 4.60683 121.393 4.235 119.929 4.235C118.664 4.235 117.567 4.51867 116.64 5.086C115.712 5.65333 114.991 6.4315 114.478 7.4205C113.972 8.4095 113.719 9.53267 113.719 10.79C113.719 12.032 113.964 13.1475 114.455 14.1365C114.945 15.1255 115.651 15.9075 116.571 16.4825C117.491 17.0575 118.595 17.345 119.883 17.345ZM133.254 17.345C134.45 17.345 135.55 17.0307 136.555 16.402C137.567 15.7733 138.306 14.8917 138.774 13.757L135.646 12.86C135.171 13.9027 134.312 14.424 133.07 14.424C132.219 14.424 131.548 14.1863 131.058 13.711C130.575 13.2357 130.276 12.5533 130.161 11.664H138.878C139.008 10.1613 138.855 8.85417 138.418 7.7425C137.981 6.63083 137.306 5.76833 136.394 5.155C135.481 4.54167 134.373 4.235 133.07 4.235C131.843 4.235 130.759 4.51483 129.816 5.0745C128.873 5.6265 128.133 6.40467 127.596 7.409C127.059 8.41333 126.791 9.594 126.791 10.951C126.791 12.193 127.063 13.297 127.608 14.263C128.16 15.2213 128.919 15.9765 129.885 16.5285C130.858 17.0728 131.981 17.345 133.254 17.345ZM133.208 6.949C133.959 6.949 134.534 7.13683 134.933 7.5125C135.339 7.88817 135.6 8.49767 135.715 9.341H130.241C130.571 7.74633 131.56 6.949 133.208 6.949Z" fill="#31353B"/>
</svg>
